<svg id="Capa_1" enable-background="new 0 0 512 512" height="512" viewBox="0 0 512 512" width="512" xmlns="http://www.w3.org/2000/svg"><g><path d="m256 192.8c-34.849 0-63.2 28.352-63.2 63.2s28.352 63.2 63.2 63.2 63.2-28.352 63.2-63.2-28.351-63.2-63.2-63.2zm0 96.4c-18.307 0-33.2-14.894-33.2-33.2s14.894-33.2 33.2-33.2 33.2 14.894 33.2 33.2-14.893 33.2-33.2 33.2z"/><path d="m141.695 141.695-21.213-21.213c-36.251 36.251-56.215 84.379-56.215 135.518 0 51.138 19.964 99.266 56.216 135.517l21.213-21.213c-30.586-30.585-47.429-71.179-47.429-114.304s16.843-83.72 47.428-114.305z"/><path d="m96.273 96.273-21.212-21.212c-48.404 48.403-75.061 112.662-75.061 180.939s26.657 132.536 75.061 180.939l21.213-21.213c-42.737-42.737-66.274-99.462-66.274-159.726s23.537-116.989 66.273-159.727z"/><path d="m436.939 75.061-21.213 21.213c42.737 42.737 66.274 99.462 66.274 159.726s-23.537 116.989-66.273 159.727l21.213 21.213c48.403-48.404 75.06-112.663 75.06-180.94s-26.657-132.536-75.061-180.939z"/><path d="m391.518 120.482-21.213 21.213c30.585 30.585 47.428 71.18 47.428 114.305s-16.844 83.719-47.429 114.304l21.213 21.213c36.251-36.251 56.216-84.379 56.216-135.517 0-51.139-19.964-99.267-56.215-135.518z"/><path d="m346.095 165.905-21.213 21.213c18.433 18.433 28.584 42.896 28.584 68.882s-10.151 50.449-28.585 68.882l21.214 21.213c24.099-24.1 37.371-56.096 37.371-90.095.001-34-13.271-65.996-37.371-90.095z"/><path d="m187.118 187.118-21.213-21.213c-24.1 24.099-37.372 56.095-37.372 90.095 0 33.999 13.272 65.996 37.371 90.095l21.214-21.213c-18.434-18.434-28.585-42.896-28.585-68.882s10.152-50.449 28.585-68.882z"/></g></svg>